inDegrees=no
num_controls=7
num_derivatives=13
num_iterations=91
num_multipliers=7
num_parameters=0
num_slacks=7
num_states=26
objective=5.588515
objective_accelerations=0.735281
objective_balance=0.047387
objective_effort=0.689503
objective_height=4.062166
objective_ligament=0.054177
solver_duration=935.011712
status=Solve_Succeeded
success=true
DataType=double
version=3
OpenSimVersion=4.4-2022-07-23-0e9fedc
endheader
time	/jointset/ground_pelvis/pelvis_tilt/value	/jointset/ground_pelvis/pelvis_tx/value	/jointset/ground_pelvis/pelvis_ty/value	/jointset/hip_l/hip_flexion_l/value	/jointset/hip_l/hip_adduction_l/value	/jointset/hip_l/hip_rotation_l/value	/jointset/back/lumbar_extension/value	/jointset/patellofemoral_l/patellar_flexion_l/value	/jointset/knee_l/knee_flexion_l/value	/jointset/knee_l/knee_adduction_l/value	/jointset/knee_l/knee_rotation_l/value	/jointset/ankle_l/ankle_angle_l/value	/jointset/subtalar_l/subtalar_angle_l/value	/jointset/ground_pelvis/pelvis_tilt/speed	/jointset/ground_pelvis/pelvis_tx/speed	/jointset/ground_pelvis/pelvis_ty/speed	/jointset/hip_l/hip_flexion_l/speed	/jointset/hip_l/hip_adduction_l/speed	/jointset/hip_l/hip_rotation_l/speed	/jointset/back/lumbar_extension/speed	/jointset/patellofemoral_l/patellar_flexion_l/speed	/jointset/knee_l/knee_flexion_l/speed	/jointset/knee_l/knee_adduction_l/speed	/jointset/knee_l/knee_rotation_l/speed	/jointset/ankle_l/ankle_angle_l/speed	/jointset/subtalar_l/subtalar_angle_l/speed	/forceset/tau_hip_flexion_l	/forceset/tau_hip_adduction_l	/forceset/tau_hip_rotation_l	/forceset/tau_knee_flexion_l	/forceset/tau_ankle_angle_l	/forceset/tau_subtalar_angle_l	/forceset/tau_lumbar_extension	lambda_cid13_p0	lambda_cid13_p1	lambda_cid13_p2	lambda_cid13_p3	lambda_cid13_p4	lambda_cid13_p5	lambda_cid14_p0	/jointset/ground_pelvis/pelvis_tilt/accel	/jointset/ground_pelvis/pelvis_tx/accel	/jointset/ground_pelvis/pelvis_ty/accel	/jointset/hip_l/hip_flexion_l/accel	/jointset/hip_l/hip_adduction_l/accel	/jointset/hip_l/hip_rotation_l/accel	/jointset/back/lumbar_extension/accel	/jointset/patellofemoral_l/patellar_flexion_l/accel	/jointset/knee_l/knee_flexion_l/accel	/jointset/knee_l/knee_adduction_l/accel	/jointset/knee_l/knee_rotation_l/accel	/jointset/ankle_l/ankle_angle_l/accel	/jointset/subtalar_l/subtalar_angle_l/accel	gamma_cid13_p0	gamma_cid13_p1	gamma_cid13_p2	gamma_cid13_p3	gamma_cid13_p4	gamma_cid13_p5	gamma_cid14_p0
0.5	-0.1461980324942817	-0.09173746880052669	0.6720069751346361	1.407795769755596	-0.3081420267785958	-0.02302046379934078	-0.8706578807167372	1.365931563798358	1.36593156379846	0.04086981043669364	-0.1744676725935327	0.2059272161915756	0.06056430215622326	-0.1033637679439676	-0.1184466504035342	-0.9013422665089124	2.68040548932434	0.01422754832309328	0.5491371515115822	-0.7094715991193613	2.795543598912555	2.795543598912578	0.5032059676575071	-0.0003889060088919832	0.4002502635607564	0.1772382800142142	-0.3649618703211735	-0.002652888099278576	-0.01893678270518048	-0.3404121679606585	0.1482704653018036	0.04172428111408193	0.4156094652022994	2.092280850279949	-15.10542263914796	-1.90889125913288	-26.87646465498796	-736.6173147580419	-65.72525848499484	-0.04277682645942228	1.582176028798637	1.429565293716096	-0.03576026760559497	-2.976426658593088	0.1446917412127717	-0.872322097062772	3.272070145866338	-3.043814850087454	-3.043814850087455	-0.4689073443978037	0.02587147541941453	-1.900642172708317	-0.4979981847643085	-1.429652583985083e-08	-1.234948386790668e-06	-2.43802095719075e-07	-5.121429164581246e-07	-2.088664558476852e-07	-5.428744335726969e-08	-1.975612308045219e-07
0.51	-0.1471525699091201	-0.09285081797462581	0.6629939612753187	1.434448478792457	-0.3079932552887262	-0.01757353214527728	-0.8775889388844232	1.393731360166518	1.3937313601666	0.04587780556528959	-0.1744717540691759	0.2098334938800558	0.06231019890770368	-0.08752699852320144	-0.104259598738543	-0.9010249925701227	2.649823583775555	0.01552510543100766	0.5402550535336654	-0.676766184099019	2.7640576884671	2.764057688467111	0.4983355672707386	-0.0004231414918545397	0.3809272138831449	0.1718865686274889	-0.3721290247611178	-0.003970805987553555	-0.01972277723999894	-0.3486601625412643	0.1494838747647869	0.04073337069939176	0.423223615708802	1.849862666869092	-14.41824609462472	-2.263317373408097	-26.52582026670659	-745.7606002572104	-65.29643657467777	-0.04254239468337817	1.586905414532917	1.40770627354507	0.1007595150366314	-3.146006036086834	0.1221603063010991	-0.8954507782325827	3.265854728220702	-3.254643092215812	-3.254643092217463	-0.5049390471435493	-0.01751747673429892	-1.959887359993025	-0.5616990706780393	4.01881239826502e-08	-1.165860529605494e-06	-4.942413984391617e-07	-5.478444741642388e-07	-1.858704224458833e-07	-2.625286681641816e-07	-1.48203160402295e-07
0.52	-0.1479482440266225	-0.0938234103979444	0.653991177813474	1.460785982067192	-0.307831533705644	-0.01221528089693774	-0.884193727392288	1.421205564640136	1.421205564640204	0.0508353301580027	-0.1744760671828983	0.2135441908728173	0.06400099025430699	-0.07159110846968271	-0.09029530024742072	-0.8992961870146675	2.617364336904177	0.01681756696774703	0.5314010703527009	-0.644217667154537	2.730425220003997	2.730425220003996	0.4931118604308617	-0.0004352336379903552	0.3611341244173095	0.1662171990387257	-0.379296179201046	-0.00528872387576422	-0.02050877177407239	-0.3569081571218214	0.1506972842277808	0.03974246028477785	0.4308377662153102	1.586544270435785	-13.72569189589378	-2.620564232281008	-26.17394638254671	-755.1975372533475	-64.91850666181119	-0.04219941585183175	1.602000155349608	1.385014658941969	0.2465460557274908	-3.351894923111635	0.1436726269786229	-0.8666991376716933	3.240690530694431	-3.473126453617147	-3.47312645361713	-0.5395686350191748	0.03030014278613591	-1.994650130353557	-0.561529825171195	8.593108345699943e-08	-1.113053251341199e-06	-7.151742837109109e-07	-5.770274924772512e-07	-1.711918488106486e-07	-4.741113623064898e-07	-1.042881394458905e-07
0.53	-0.1485843085570487	-0.09465756908623847	0.6450126988534054	1.486789727415647	-0.3076567861523675	-0.00694571221842457	-0.8904740096230096	1.448332988946523	1.448332988946512	0.05573932761228713	-0.1744802498285348	0.2170549777026584	0.06563379854754825	-0.05562865295449654	-0.07658237106358926	-0.8961669682554366	2.583083320125275	0.01812808329230346	0.5225140265725766	-0.6118871341723566	2.69472326324119	2.694723263241197	0.487626822730813	-0.0004023770617167561	0.3409789449582274	0.1603010214663636	-0.3856633960717947	-0.00670221202660254	-0.02136028990994989	-0.3646991451783889	0.1517003348736851	0.03867230669292471	0.4376375675084748	1.294734929901647	-12.98964091213323	-2.989419709653228	-25.70209039606682	-763.8599846656475	-64.41537799640909	-0.04186360861206249	1.592319789994969	1.357423528250535	0.3809726010923704	-3.511429429167452	0.1243246101123951	-0.8996077625676511	3.221981404849933	-3.669170748482092	-3.669170748480884	-0.5622463098932264	-0.01056858867527386	-2.032628786724591	-0.6129086989162553	1.269241835838394e-07	-1.057262709518324e-06	-9.064813833909284e-07	-5.989401618554742e-07	-1.59801040048292e-07	-6.858207900242905e-07	-6.229453964574973e-08
0.54	-0.1490609582242814	-0.09535600018666503	0.6360724846439448	1.512441617721513	-0.3074690167408712	-0.001764994130500815	-0.8964324371793382	1.475093305593108	1.475093305593028	0.06058661969519836	-0.174484173309236	0.2203628773512997	0.06720619566993673	-0.03970813582358163	-0.06314978267391279	-0.8916432368933095	2.546993328390877	0.01942193861358199	0.5136309522170718	-0.5798467322753352	2.657003688043596	2.657003688043611	0.4817707861349277	-0.0003834006343542848	0.3205566881775764	0.1541349648681114	-0.3920306129425185	-0.008115700177336415	-0.02221180804556734	-0.372490133234938	0.1527033855196072	0.03760215310120897	0.4444373688016546	0.9793661684069433	-12.24796410453153	-3.360887581616884	-25.21299103761831	-772.8481442423496	-63.96062347774736	-0.04154226082169284	1.593612478495745	1.328946500110672	0.5254485763067309	-3.713689914211021	0.1403404263238759	-0.8659052527471101	3.182664313662753	-3.876650140574968	-3.876650140574939	-0.6137684141862281	0.02752411300540837	-2.048065594667733	-0.6115056303484016	1.626621201772646e-07	-9.981715356731921e-07	-1.065011018160944e-06	-6.12809040922866e-07	-1.520477583793327e-07	-8.976704336128485e-07	-2.242676750785817e-08
